<svg id="Ebene_1" data-name="Ebene 1" xmlns="http://www.w3.org/2000/svg" viewBox="0 0 279.16 205.83"><defs><style>.cls-1{fill:#fff;}</style></defs><path class="cls-1" d="M7168.07,7096.59h62.39c4.36,0,9.34,3.38,11.26,7.23l56.74,113.84c1.74,3.51-.78,7.11-3.75,7.11H7103.82c-3,0-5.5-3.6-3.74-7.11l56.73-113.84c1.92-3.85,6.9-7.23,11.26-7.23" transform="translate(-7059.92 -7096.59)"/><path class="cls-1" d="M7063.19,7302.41h54.34a9.69,9.69,0,0,0,7.86-5.17l18.33-38.83c1.37-2.88.24-5.17-2.67-5.17H7087.9c-2.9,0-6.44,2.33-7.87,5.17l-19.51,38.83c-1.43,2.84-.23,5.17,2.67,5.17" transform="translate(-7059.92 -7096.59)"/><path class="cls-1" d="M7335.81,7302.41h-54.34a9.69,9.69,0,0,1-7.86-5.17l-18.33-38.83c-1.36-2.88-.23-5.17,2.67-5.17h53.16c2.9,0,6.44,2.33,7.86,5.17l19.52,38.83c1.41,2.84.22,5.17-2.68,5.17" transform="translate(-7059.92 -7096.59)"/></svg>