<?xml version="1.0" encoding="iso-8859-1"?>
<!-- Generator: Adobe Illustrator 25.4.1, SVG Export Plug-In . SVG Version: 6.00 Build 0)  -->
<svg version="1.1" id="Ebene_1" xmlns="http://www.w3.org/2000/svg" xmlns:xlink="http://www.w3.org/1999/xlink" x="0px" y="0px"
	 viewBox="0 0 850.394 155.855" style="enable-background:new 0 0 850.394 155.855;" xml:space="preserve">
<g>
	<defs>
		<rect id="SVGID_1_" x="123.571" y="42.774" width="704.581" height="69.486"/>
	</defs>
	<clipPath id="SVGID_00000156568670152826665460000004912860720613209489_">
		<use xlink:href="#SVGID_1_"  style="overflow:visible;"/>
	</clipPath>
	<path style="clip-path:url(#SVGID_00000156568670152826665460000004912860720613209489_);fill:#FFFFFF;" d="M682.194,46.946v-2.232
		c0-0.679-0.486-1.164-1.165-1.164h-40.954c-0.679,0-1.165,0.485-1.165,1.164v65.604c0,0.68,0.486,1.165,1.165,1.165h40.954
		c0.679,0,1.165-0.485,1.165-1.165v-2.232c0-0.679-0.486-1.164-1.165-1.164h-36.587c-0.194,0-0.388-0.194-0.388-0.388V80.04
		c0-0.194,0.194-0.389,0.388-0.389h25.912c0.679,0,1.164-0.485,1.164-1.164v-2.232c0-0.68-0.485-1.165-1.164-1.165h-25.912
		c-0.194,0-0.388-0.194-0.388-0.388V48.499c0-0.194,0.194-0.388,0.388-0.388h36.587C681.708,48.111,682.194,47.626,682.194,46.946
		 M606.497,75.867h-19.992c-0.194,0-0.388-0.195-0.388-0.389V48.402c0-0.194,0.194-0.388,0.388-0.388h19.992
		c8.152,0,13.587,5.532,13.587,13.975C620.084,70.238,614.649,75.867,606.497,75.867 M606.885,43.356h-24.747
		c-0.679,0-1.164,0.485-1.164,1.164v65.798c0,0.68,0.485,1.165,1.164,1.165h2.814c0.68,0,1.165-0.485,1.165-1.165V80.622
		c0-0.194,0.194-0.388,0.388-0.388h20.186c11.161,0,18.536-7.279,18.536-18.342C625.227,50.828,617.949,43.356,606.885,43.356
		 M549.239,75.867h-19.991c-0.194,0-0.389-0.195-0.389-0.389V48.402c0-0.194,0.195-0.388,0.389-0.388h19.991
		c8.152,0,13.587,5.532,13.587,13.975C562.826,70.238,557.391,75.867,549.239,75.867 M549.628,43.356H524.88
		c-0.679,0-1.164,0.485-1.164,1.164v65.798c0,0.68,0.485,1.165,1.164,1.165h2.815c0.679,0,1.164-0.485,1.164-1.165V80.622
		c0-0.194,0.195-0.388,0.389-0.388h20.186c11.16,0,18.536-7.279,18.536-18.342C567.97,50.828,560.691,43.356,549.628,43.356
		 M482.762,112.259c13.587,0,22.515-8.54,22.515-21.35V44.714c0-0.679-0.485-1.164-1.165-1.164h-2.814
		c-0.679,0-1.165,0.485-1.165,1.164v46.389c0,9.899-6.89,16.595-17.371,16.595c-10.384,0-17.372-6.696-17.372-16.595V44.714
		c0-0.679-0.485-1.164-1.164-1.164h-2.815c-0.679,0-1.164,0.485-1.164,1.164v46.195
		C460.247,103.719,469.272,112.259,482.762,112.259 M407.162,48.014h19.41c8.054,0,13.489,5.435,13.489,13.684
		c0,8.055-5.435,13.489-13.489,13.489h-19.41c-0.194,0-0.388-0.194-0.388-0.388V48.402
		C406.774,48.208,406.968,48.014,407.162,48.014 M442.099,111.483h2.717c0.874,0,1.262-0.485,0.874-1.359l-14.848-30.57
		c-0.097-0.194,0-0.388,0.291-0.485c8.54-1.456,14.072-8.152,14.072-17.468c0-10.87-7.279-18.245-18.148-18.245h-24.262
		c-0.679,0-1.165,0.485-1.165,1.164v65.798c0,0.68,0.486,1.165,1.165,1.165h2.814c0.68,0,1.165-0.485,1.165-1.165V79.846
		c0-0.195,0.194-0.389,0.388-0.389h18.245c0.194,0,0.291,0.097,0.388,0.291l14.945,30.862
		C441.032,111.192,441.517,111.483,442.099,111.483 M362.909,112.259c13.198,0,22.03-7.958,22.03-21.156V78.681
		c0-0.679-0.486-1.165-1.165-1.165h-19.312c-0.68,0-1.165,0.486-1.165,1.165v2.232c0,0.679,0.485,1.165,1.165,1.165h14.945
		c0.194,0,0.388,0.194,0.388,0.388v9.802c0,9.413-6.696,15.43-16.789,15.43c-10.287,0-17.178-6.405-17.178-16.013V63.347
		c0-9.607,6.794-16.012,17.081-16.012c10.093,0,16.886,6.405,16.886,15.721v1.068c0,0.679,0.485,1.164,1.165,1.164h2.814
		c0.679,0,1.165-0.485,1.165-1.164v-1.165c0-11.839-8.832-20.186-22.03-20.186c-13.393,0-22.224,8.249-22.224,20.769v27.949
		C340.685,103.913,349.516,112.259,362.909,112.259 M300.314,83.242h27.464c0.68,0,1.165-0.485,1.165-1.164v-2.232
		c0-0.68-0.485-1.165-1.165-1.165h-27.464c-0.679,0-1.165,0.485-1.165,1.165v2.232C299.149,82.757,299.635,83.242,300.314,83.242
		 M293.715,53.643V45.2c0-1.068-0.582-1.65-1.65-1.65h-43.768c-1.068,0-1.65,0.582-1.65,1.65v64.633c0,1.068,0.582,1.65,1.65,1.65
		h10.384c1.067,0,1.65-0.582,1.65-1.65V83.63c0-0.388,0.291-0.582,0.582-0.582h20.283c1.067,0,1.65-0.582,1.65-1.65v-8.443
		c0-1.067-0.583-1.65-1.65-1.65h-20.283c-0.388,0-0.582-0.194-0.582-0.582V55.875c0-0.388,0.291-0.582,0.582-0.582h31.152
		C293.133,55.293,293.715,54.71,293.715,53.643 M191.428,111.483h43.962c1.068,0,1.65-0.582,1.65-1.65v-8.443
		c0-1.067-0.582-1.65-1.65-1.65h-29.696c-0.485,0-0.679-0.291-0.388-0.679l31.055-42.216c0.485-0.582,0.679-1.261,0.679-2.038V45.2
		c0-1.068-0.582-1.65-1.65-1.65h-43.962c-1.068,0-1.65,0.582-1.65,1.65v8.443c0,1.067,0.582,1.65,1.65,1.65h29.696
		c0.486,0,0.68,0.291,0.389,0.679l-31.056,42.215c-0.485,0.583-0.679,1.262-0.679,2.038v9.608
		C189.778,110.901,190.36,111.483,191.428,111.483 M144.264,89.356l8.637-29.599c0.195-0.486,0.583-0.486,0.777,0l8.734,29.599
		c0.097,0.485-0.097,0.68-0.485,0.68h-17.178C144.361,90.036,144.167,89.841,144.264,89.356 M170.37,111.483h11.258
		c1.164,0,1.746-0.776,1.358-1.844l-20.671-64.731c-0.291-0.873-0.873-1.358-1.844-1.358h-14.266c-0.97,0-1.553,0.485-1.844,1.358
		l-20.671,64.731c-0.388,1.068,0.194,1.844,1.359,1.844h11.257c0.971,0,1.553-0.485,1.844-1.359l2.718-9.025
		c0.097-0.388,0.291-0.485,0.582-0.485h23.776c0.292,0,0.486,0.097,0.583,0.485l2.717,9.025
		C168.817,110.998,169.4,111.483,170.37,111.483"/>
</g>
</svg>
